<svg width="20" height="20" viewBox="0 0 20 20" fill="none" xmlns="http://www.w3.org/2000/svg">
<path d="M12.859 2.56699C13.1064 2.66227 13.3058 2.85189 13.4134 3.09416C13.5211 3.33644 13.5281 3.61154 13.433 3.85899L8.43298 16.859C8.3882 16.9847 8.31872 17.1002 8.22863 17.1986C8.13854 17.297 8.02966 17.3764 7.90841 17.4321C7.78716 17.4878 7.65599 17.5187 7.52262 17.5229C7.38925 17.5271 7.25639 17.5046 7.13185 17.4567C7.00732 17.4088 6.89364 17.3364 6.7975 17.2439C6.70136 17.1514 6.62471 17.0405 6.57207 16.9179C6.51943 16.7953 6.49186 16.6634 6.49099 16.53C6.49011 16.3965 6.51595 16.2643 6.56698 16.141L11.567 3.14099C11.6623 2.8936 11.8519 2.69416 12.0942 2.58653C12.3364 2.47889 12.6115 2.47186 12.859 2.56699Z" fill="url(#paint0_linear_68_7)"/>
<path d="M6.14994 5.73998C6.24975 5.82533 6.33177 5.92951 6.39132 6.04657C6.45086 6.16363 6.48677 6.29126 6.49698 6.4222C6.5072 6.55313 6.49152 6.68479 6.45085 6.80966C6.41018 6.93454 6.34531 7.05018 6.25994 7.14998L3.81594 9.99998L6.25794 12.85C6.41869 13.0527 6.49464 13.3098 6.46983 13.5673C6.44502 13.8248 6.32139 14.0626 6.1249 14.2309C5.92841 14.3992 5.67436 14.4848 5.41611 14.4697C5.15785 14.4546 4.9155 14.34 4.73994 14.15L1.73994 10.65C1.58501 10.4688 1.49988 10.2383 1.49988 9.99998C1.49988 9.76163 1.58501 9.53111 1.73994 9.34998L4.73994 5.84998C4.8253 5.75017 4.92948 5.66815 5.04653 5.6086C5.16359 5.54906 5.29123 5.51315 5.42216 5.50294C5.55309 5.49272 5.68476 5.5084 5.80963 5.54907C5.9345 5.58974 6.05014 5.65461 6.14994 5.73998Z" fill="url(#paint1_linear_68_7)"/>
<path d="M13.7399 7.14999C13.5675 6.94843 13.4823 6.68664 13.5029 6.42221C13.5235 6.15778 13.6484 5.91238 13.8499 5.73999C14.0515 5.5676 14.3133 5.48234 14.5777 5.50297C14.8421 5.5236 15.0875 5.64843 15.2599 5.84999L18.2599 9.34999C18.4149 9.53112 18.5 9.76164 18.5 9.99999C18.5 10.2383 18.4149 10.4689 18.2599 10.65L15.2599 14.15C15.0875 14.3516 14.8421 14.4764 14.5777 14.497C14.3133 14.5176 14.0515 14.4324 13.8499 14.26C13.6484 14.0876 13.5235 13.8422 13.5029 13.5778C13.4823 13.3133 13.5675 13.0516 13.7399 12.85L16.1839 9.99999L13.7399 7.14999Z" fill="url(#paint2_linear_68_7)"/>
<defs>
<linearGradient id="paint0_linear_68_7" x1="1.99998" y1="1.49999" x2="19" y2="18" gradientUnits="userSpaceOnUse">
<stop stop-color="#C76EFB"/>
<stop offset="1" stop-color="#8B52F4"/>
</linearGradient>
<linearGradient id="paint1_linear_68_7" x1="1.99994" y1="1.49998" x2="18.9999" y2="18" gradientUnits="userSpaceOnUse">
<stop stop-color="#C76EFB"/>
<stop offset="1" stop-color="#8B52F4"/>
</linearGradient>
<linearGradient id="paint2_linear_68_7" x1="1.99993" y1="1.49999" x2="18.9999" y2="18" gradientUnits="userSpaceOnUse">
<stop stop-color="#C76EFB"/>
<stop offset="1" stop-color="#8B52F4"/>
</linearGradient>
</defs>
</svg>
